<svg width="423" height="183" viewBox="0 0 423 183" fill="none" xmlns="http://www.w3.org/2000/svg">
<line x1="303.5" y1="2.18557e-08" x2="303.5" y2="142" stroke="#AEAEAE"/>
<line x1="86" y1="43.5" x2="280" y2="43.5" stroke="#AEAEAE"/>
<line x1="86" y1="104.5" x2="280" y2="104.5" stroke="#AEAEAE"/>
<line x1="86" y1="182.5" x2="280" y2="182.5" stroke="#AEAEAE"/>
<path d="M100.608 156.545H103.744V168.818C103.739 169.943 103.5 170.912 103.028 171.724C102.557 172.531 101.898 173.153 101.051 173.591C100.21 174.023 99.2301 174.239 98.1108 174.239C97.0881 174.239 96.1676 174.057 95.3494 173.693C94.5369 173.324 93.892 172.778 93.4148 172.057C92.9375 171.335 92.6989 170.437 92.6989 169.364H95.8438C95.8494 169.835 95.9517 170.241 96.1506 170.582C96.3551 170.923 96.6364 171.185 96.9943 171.366C97.3523 171.548 97.7642 171.639 98.2301 171.639C98.7358 171.639 99.1648 171.534 99.517 171.324C99.8693 171.108 100.136 170.79 100.318 170.369C100.506 169.949 100.602 169.432 100.608 168.818V156.545ZM110.805 174.264C109.976 174.264 109.229 174.116 108.564 173.821C107.905 173.52 107.382 173.077 106.996 172.491C106.615 171.906 106.425 171.185 106.425 170.327C106.425 169.588 106.561 168.977 106.834 168.494C107.107 168.011 107.479 167.625 107.95 167.335C108.422 167.045 108.953 166.827 109.544 166.679C110.141 166.526 110.757 166.415 111.393 166.347C112.161 166.267 112.783 166.196 113.26 166.134C113.737 166.065 114.084 165.963 114.3 165.827C114.521 165.685 114.632 165.466 114.632 165.17V165.119C114.632 164.477 114.442 163.98 114.061 163.628C113.68 163.276 113.132 163.099 112.416 163.099C111.661 163.099 111.061 163.264 110.618 163.594C110.18 163.923 109.885 164.312 109.732 164.761L106.851 164.352C107.078 163.557 107.453 162.892 107.976 162.358C108.499 161.818 109.138 161.415 109.893 161.148C110.649 160.875 111.484 160.739 112.399 160.739C113.03 160.739 113.658 160.812 114.283 160.96C114.908 161.108 115.479 161.352 115.996 161.693C116.513 162.028 116.928 162.486 117.24 163.065C117.558 163.645 117.717 164.369 117.717 165.239V174H114.751V172.202H114.649C114.462 172.565 114.197 172.906 113.857 173.224C113.521 173.537 113.098 173.79 112.587 173.983C112.081 174.17 111.487 174.264 110.805 174.264ZM111.607 171.997C112.226 171.997 112.763 171.875 113.217 171.631C113.672 171.381 114.021 171.051 114.266 170.642C114.516 170.233 114.641 169.787 114.641 169.304V167.761C114.544 167.841 114.379 167.915 114.146 167.983C113.919 168.051 113.663 168.111 113.379 168.162C113.095 168.213 112.814 168.259 112.536 168.298C112.257 168.338 112.016 168.372 111.811 168.401C111.351 168.463 110.939 168.565 110.575 168.707C110.212 168.849 109.925 169.048 109.714 169.304C109.504 169.554 109.399 169.878 109.399 170.276C109.399 170.844 109.607 171.273 110.021 171.562C110.436 171.852 110.964 171.997 111.607 171.997ZM126.53 174.256C125.223 174.256 124.101 173.969 123.163 173.395C122.232 172.821 121.513 172.028 121.007 171.017C120.507 170 120.257 168.83 120.257 167.506C120.257 166.176 120.513 165.003 121.024 163.986C121.536 162.963 122.257 162.168 123.189 161.599C124.126 161.026 125.234 160.739 126.513 160.739C127.575 160.739 128.516 160.935 129.334 161.327C130.158 161.713 130.814 162.261 131.303 162.972C131.791 163.676 132.07 164.5 132.138 165.443H129.189C129.07 164.812 128.786 164.287 128.337 163.866C127.893 163.44 127.3 163.227 126.555 163.227C125.925 163.227 125.371 163.398 124.893 163.739C124.416 164.074 124.044 164.557 123.777 165.188C123.516 165.818 123.385 166.574 123.385 167.455C123.385 168.347 123.516 169.114 123.777 169.756C124.038 170.392 124.405 170.884 124.876 171.23C125.354 171.571 125.913 171.741 126.555 171.741C127.01 171.741 127.416 171.656 127.774 171.486C128.138 171.31 128.442 171.057 128.686 170.727C128.93 170.398 129.098 169.997 129.189 169.526H132.138C132.064 170.452 131.791 171.273 131.32 171.989C130.848 172.699 130.206 173.256 129.393 173.659C128.581 174.057 127.626 174.256 126.53 174.256ZM137.484 169.892L137.475 166.168H137.969L142.674 160.909H146.279L140.492 167.352H139.853L137.484 169.892ZM134.671 174V156.545H137.756V174H134.671ZM142.887 174L138.626 168.043L140.705 165.869L146.577 174H142.887Z" fill="#5E5959"/>
<path d="M1.72159 36V18.5455H13.0739V21.196H4.88352V25.9347H12.4858V28.5852H4.88352V33.3494H13.142V36H1.72159ZM19.9304 36.2642C19.1009 36.2642 18.3537 36.1165 17.6889 35.821C17.0298 35.5199 16.5071 35.0767 16.1207 34.4915C15.7401 33.9062 15.5497 33.1847 15.5497 32.3267C15.5497 31.5881 15.6861 30.9773 15.9588 30.4943C16.2315 30.0114 16.6037 29.625 17.0753 29.3352C17.5469 29.0455 18.0781 28.8267 18.669 28.679C19.2656 28.5256 19.8821 28.4148 20.5185 28.3466C21.2855 28.267 21.9077 28.196 22.3849 28.1335C22.8622 28.0653 23.2088 27.9631 23.4247 27.8267C23.6463 27.6847 23.7571 27.4659 23.7571 27.1705V27.1193C23.7571 26.4773 23.5668 25.9801 23.1861 25.6278C22.8054 25.2756 22.2571 25.0994 21.5412 25.0994C20.7855 25.0994 20.1861 25.2642 19.7429 25.5938C19.3054 25.9233 19.0099 26.3125 18.8565 26.7614L15.9759 26.3523C16.2031 25.5568 16.5781 24.892 17.1009 24.358C17.6236 23.8182 18.2628 23.4148 19.0185 23.1477C19.7741 22.875 20.6094 22.7386 21.5241 22.7386C22.1548 22.7386 22.7827 22.8125 23.4077 22.9602C24.0327 23.108 24.6037 23.3523 25.1207 23.6932C25.6378 24.0284 26.0526 24.4858 26.3651 25.0653C26.6832 25.6449 26.8423 26.3693 26.8423 27.2386V36H23.8764V34.2017H23.7741C23.5866 34.5653 23.3224 34.9062 22.9815 35.2244C22.6463 35.5369 22.223 35.7898 21.7116 35.983C21.206 36.1705 20.6122 36.2642 19.9304 36.2642ZM20.7315 33.9972C21.3509 33.9972 21.8878 33.875 22.3423 33.6307C22.7969 33.3807 23.1463 33.0511 23.3906 32.642C23.6406 32.233 23.7656 31.7869 23.7656 31.304V29.7614C23.669 29.8409 23.5043 29.9148 23.2713 29.983C23.044 30.0511 22.7884 30.1108 22.5043 30.1619C22.2202 30.2131 21.9389 30.2585 21.6605 30.2983C21.3821 30.3381 21.1406 30.3722 20.9361 30.4006C20.4759 30.4631 20.0639 30.5653 19.7003 30.7074C19.3366 30.8494 19.0497 31.0483 18.8395 31.304C18.6293 31.554 18.5241 31.8778 18.5241 32.2756C18.5241 32.8438 18.7315 33.2727 19.1463 33.5625C19.5611 33.8523 20.0895 33.9972 20.7315 33.9972ZM29.9446 36V22.9091H32.9361V25.0909H33.0724C33.3111 24.3352 33.7202 23.7528 34.2997 23.3438C34.8849 22.929 35.5526 22.7216 36.3026 22.7216C36.473 22.7216 36.6634 22.7301 36.8736 22.7472C37.0895 22.7585 37.2685 22.7784 37.4105 22.8068V25.6449C37.2798 25.5994 37.0724 25.5597 36.7884 25.5256C36.5099 25.4858 36.2401 25.4659 35.9787 25.4659C35.4162 25.4659 34.9105 25.5881 34.4616 25.8324C34.0185 26.071 33.669 26.4034 33.4134 26.8295C33.1577 27.2557 33.0298 27.7472 33.0298 28.304V36H29.9446ZM49.8068 26.3693L46.9943 26.6761C46.9148 26.392 46.7756 26.125 46.5767 25.875C46.3835 25.625 46.1222 25.4233 45.7926 25.2699C45.4631 25.1165 45.0597 25.0398 44.5824 25.0398C43.9403 25.0398 43.4006 25.179 42.9631 25.4574C42.5312 25.7358 42.3182 26.0966 42.3239 26.5398C42.3182 26.9205 42.4574 27.2301 42.7415 27.4688C43.0313 27.7074 43.5085 27.9034 44.1733 28.0568L46.4062 28.5341C47.6449 28.8011 48.5653 29.2244 49.1676 29.804C49.7756 30.3835 50.0824 31.142 50.0881 32.0795C50.0824 32.9034 49.8409 33.6307 49.3636 34.2614C48.892 34.8864 48.2358 35.375 47.3949 35.7273C46.554 36.0795 45.5881 36.2557 44.4972 36.2557C42.8949 36.2557 41.6051 35.9205 40.6278 35.25C39.6506 34.5739 39.0682 33.6335 38.8807 32.429L41.8892 32.1392C42.0256 32.7301 42.3153 33.1761 42.7585 33.4773C43.2017 33.7784 43.7784 33.929 44.4886 33.929C45.2216 33.929 45.8097 33.7784 46.2528 33.4773C46.7017 33.1761 46.9261 32.804 46.9261 32.3608C46.9261 31.9858 46.7813 31.6761 46.4915 31.4318C46.2074 31.1875 45.7642 31 45.1619 30.8693L42.929 30.4006C41.6733 30.1392 40.7443 29.6989 40.142 29.0795C39.5398 28.4545 39.2415 27.6648 39.2472 26.7102C39.2415 25.9034 39.4602 25.2045 39.9034 24.6136C40.3523 24.017 40.9744 23.5568 41.7699 23.233C42.571 22.9034 43.4943 22.7386 44.5398 22.7386C46.0739 22.7386 47.2813 23.0653 48.1619 23.7188C49.0483 24.3722 49.5966 25.2557 49.8068 26.3693ZM54.5327 36.1875C54.0156 36.1875 53.5724 36.0057 53.2031 35.642C52.8338 35.2784 52.652 34.8352 52.6577 34.3125C52.652 33.8011 52.8338 33.3636 53.2031 33C53.5724 32.6364 54.0156 32.4545 54.5327 32.4545C55.0327 32.4545 55.4673 32.6364 55.8366 33C56.2116 33.3636 56.402 33.8011 56.4077 34.3125C56.402 34.6591 56.3111 34.9744 56.1349 35.2585C55.9645 35.5426 55.7372 35.7699 55.4531 35.9403C55.1747 36.1051 54.8679 36.1875 54.5327 36.1875ZM54.5327 26.8466C54.0156 26.8466 53.5724 26.6648 53.2031 26.3011C52.8338 25.9318 52.652 25.4886 52.6577 24.9716C52.652 24.4602 52.8338 24.0227 53.2031 23.6591C53.5724 23.2898 54.0156 23.1051 54.5327 23.1051C55.0327 23.1051 55.4673 23.2898 55.8366 23.6591C56.2116 24.0227 56.402 24.4602 56.4077 24.9716C56.402 25.3125 56.3111 25.625 56.1349 25.9091C55.9645 26.1932 55.7372 26.4205 55.4531 26.5909C55.1747 26.7614 54.8679 26.8466 54.5327 26.8466Z" fill="black"/>
<path d="M1.72159 94V76.5455H12.9034V79.196H4.88352V83.9347H12.1364V86.5852H4.88352V94H1.72159ZM19.2976 94.2642C18.468 94.2642 17.7209 94.1165 17.0561 93.821C16.397 93.5199 15.8743 93.0767 15.4879 92.4915C15.1072 91.9062 14.9169 91.1847 14.9169 90.3267C14.9169 89.5881 15.0533 88.9773 15.326 88.4943C15.5987 88.0114 15.9709 87.625 16.4425 87.3352C16.9141 87.0455 17.4453 86.8267 18.0362 86.679C18.6328 86.5256 19.2493 86.4148 19.8857 86.3466C20.6527 86.267 21.2749 86.196 21.7521 86.1335C22.2294 86.0653 22.576 85.9631 22.7919 85.8267C23.0135 85.6847 23.1243 85.4659 23.1243 85.1705V85.1193C23.1243 84.4773 22.9339 83.9801 22.5533 83.6278C22.1726 83.2756 21.6243 83.0994 20.9084 83.0994C20.1527 83.0994 19.5533 83.2642 19.1101 83.5938C18.6726 83.9233 18.3771 84.3125 18.2237 84.7614L15.343 84.3523C15.5703 83.5568 15.9453 82.892 16.468 82.358C16.9908 81.8182 17.63 81.4148 18.3857 81.1477C19.1413 80.875 19.9766 80.7386 20.8913 80.7386C21.522 80.7386 22.1499 80.8125 22.7749 80.9602C23.3999 81.108 23.9709 81.3523 24.4879 81.6932C25.005 82.0284 25.4197 82.4858 25.7322 83.0653C26.0504 83.6449 26.2095 84.3693 26.2095 85.2386V94H23.2436V92.2017H23.1413C22.9538 92.5653 22.6896 92.9062 22.3487 93.2244C22.0135 93.5369 21.5902 93.7898 21.0788 93.983C20.5732 94.1705 19.9794 94.2642 19.2976 94.2642ZM20.0987 91.9972C20.718 91.9972 21.255 91.875 21.7095 91.6307C22.1641 91.3807 22.5135 91.0511 22.7578 90.642C23.0078 90.233 23.1328 89.7869 23.1328 89.304V87.7614C23.0362 87.8409 22.8714 87.9148 22.6385 87.983C22.4112 88.0511 22.1555 88.1108 21.8714 88.1619C21.5874 88.2131 21.3061 88.2585 21.0277 88.2983C20.7493 88.3381 20.5078 88.3722 20.3033 88.4006C19.843 88.4631 19.4311 88.5653 19.0675 88.7074C18.7038 88.8494 18.4169 89.0483 18.2067 89.304C17.9964 89.554 17.8913 89.8778 17.8913 90.2756C17.8913 90.8438 18.0987 91.2727 18.5135 91.5625C18.9283 91.8523 19.4567 91.9972 20.0987 91.9972ZM35.022 94.2557C33.7152 94.2557 32.593 93.9688 31.6555 93.3949C30.7237 92.821 30.005 92.0284 29.4993 91.017C28.9993 90 28.7493 88.8295 28.7493 87.5057C28.7493 86.1761 29.005 85.0028 29.5163 83.9858C30.0277 82.9631 30.7493 82.1676 31.6811 81.5994C32.6186 81.0256 33.7266 80.7386 35.005 80.7386C36.0675 80.7386 37.0078 80.9347 37.826 81.3267C38.6499 81.7131 39.3061 82.2614 39.7947 82.9716C40.2834 83.6761 40.5618 84.5 40.63 85.4432H37.6811C37.5618 84.8125 37.2777 84.2869 36.8288 83.8665C36.3857 83.4403 35.7919 83.2273 35.0476 83.2273C34.4169 83.2273 33.8629 83.3977 33.3857 83.7386C32.9084 84.0739 32.5362 84.5568 32.2692 85.1875C32.0078 85.8182 31.8771 86.5739 31.8771 87.4545C31.8771 88.3466 32.0078 89.1136 32.2692 89.7557C32.5305 90.392 32.897 90.8835 33.3686 91.2301C33.8459 91.571 34.4055 91.7415 35.0476 91.7415C35.5021 91.7415 35.9084 91.6562 36.2663 91.4858C36.63 91.3097 36.9339 91.0568 37.1783 90.7273C37.4226 90.3977 37.5902 89.9972 37.6811 89.5256H40.63C40.5561 90.4517 40.2834 91.2727 39.8118 91.9886C39.3402 92.6989 38.6982 93.2557 37.8857 93.6591C37.0732 94.0568 36.1186 94.2557 35.022 94.2557ZM48.9588 94.2557C47.6463 94.2557 46.5128 93.983 45.5582 93.4375C44.6094 92.8864 43.8793 92.108 43.3679 91.1023C42.8565 90.0909 42.6009 88.9006 42.6009 87.5312C42.6009 86.1847 42.8565 85.0028 43.3679 83.9858C43.8849 82.9631 44.6065 82.1676 45.5327 81.5994C46.4588 81.0256 47.5469 80.7386 48.7969 80.7386C49.6037 80.7386 50.3651 80.8693 51.081 81.1307C51.8026 81.3864 52.4389 81.7841 52.9901 82.3239C53.5469 82.8636 53.9844 83.5511 54.3026 84.3864C54.6207 85.2159 54.7798 86.2045 54.7798 87.3523V88.2983H44.0497V86.2188H51.8224C51.8168 85.6278 51.6889 85.1023 51.4389 84.642C51.1889 84.1761 50.8395 83.8097 50.3906 83.5426C49.9474 83.2756 49.4304 83.142 48.8395 83.142C48.2088 83.142 47.6548 83.2955 47.1776 83.6023C46.7003 83.9034 46.3281 84.3011 46.0611 84.7955C45.7997 85.2841 45.6662 85.821 45.6605 86.4062V88.2216C45.6605 88.983 45.7997 89.6364 46.0781 90.1818C46.3565 90.7216 46.7457 91.1364 47.2457 91.4261C47.7457 91.7102 48.331 91.8523 49.0014 91.8523C49.4503 91.8523 49.8565 91.7898 50.2202 91.6648C50.5838 91.5341 50.8991 91.3438 51.1662 91.0938C51.4332 90.8438 51.6349 90.5341 51.7713 90.1648L54.652 90.4886C54.4702 91.25 54.1236 91.9148 53.6122 92.483C53.1065 93.0455 52.4588 93.483 51.669 93.7955C50.8793 94.1023 49.9759 94.2557 48.9588 94.2557ZM59.2905 94.1875C58.7734 94.1875 58.3303 94.0057 57.9609 93.642C57.5916 93.2784 57.4098 92.8352 57.4155 92.3125C57.4098 91.8011 57.5916 91.3636 57.9609 91C58.3303 90.6364 58.7734 90.4545 59.2905 90.4545C59.7905 90.4545 60.2251 90.6364 60.5945 91C60.9695 91.3636 61.1598 91.8011 61.1655 92.3125C61.1598 92.6591 61.0689 92.9744 60.8928 93.2585C60.7223 93.5426 60.495 93.7699 60.2109 93.9403C59.9325 94.1051 59.6257 94.1875 59.2905 94.1875ZM59.2905 84.8466C58.7734 84.8466 58.3303 84.6648 57.9609 84.3011C57.5916 83.9318 57.4098 83.4886 57.4155 82.9716C57.4098 82.4602 57.5916 82.0227 57.9609 81.6591C58.3303 81.2898 58.7734 81.1051 59.2905 81.1051C59.7905 81.1051 60.2251 81.2898 60.5945 81.6591C60.9695 82.0227 61.1598 82.4602 61.1655 82.9716C61.1598 83.3125 61.0689 83.625 60.8928 83.9091C60.7223 84.1932 60.495 84.4205 60.2109 84.5909C59.9325 84.7614 59.6257 84.8466 59.2905 84.8466Z" fill="black"/>
<path d="M16.0653 159.545V177H13.2528L5.02841 165.111H4.88352V177H1.72159V159.545H4.55114L12.767 171.443H12.9205V159.545H16.0653ZM23.1413 177.264C22.3118 177.264 21.5646 177.116 20.8999 176.821C20.2408 176.52 19.718 176.077 19.3317 175.491C18.951 174.906 18.7607 174.185 18.7607 173.327C18.7607 172.588 18.897 171.977 19.1697 171.494C19.4425 171.011 19.8146 170.625 20.2862 170.335C20.7578 170.045 21.2891 169.827 21.88 169.679C22.4766 169.526 23.093 169.415 23.7294 169.347C24.4964 169.267 25.1186 169.196 25.5959 169.134C26.0732 169.065 26.4197 168.963 26.6357 168.827C26.8572 168.685 26.968 168.466 26.968 168.17V168.119C26.968 167.477 26.7777 166.98 26.397 166.628C26.0163 166.276 25.468 166.099 24.7521 166.099C23.9964 166.099 23.397 166.264 22.9538 166.594C22.5163 166.923 22.2209 167.312 22.0675 167.761L19.1868 167.352C19.4141 166.557 19.7891 165.892 20.3118 165.358C20.8345 164.818 21.4737 164.415 22.2294 164.148C22.9851 163.875 23.8203 163.739 24.7351 163.739C25.3658 163.739 25.9936 163.812 26.6186 163.96C27.2436 164.108 27.8146 164.352 28.3317 164.693C28.8487 165.028 29.2635 165.486 29.576 166.065C29.8942 166.645 30.0533 167.369 30.0533 168.239V177H27.0874V175.202H26.9851C26.7976 175.565 26.5334 175.906 26.1925 176.224C25.8572 176.537 25.4339 176.79 24.9226 176.983C24.4169 177.17 23.8232 177.264 23.1413 177.264ZM23.9425 174.997C24.5618 174.997 25.0987 174.875 25.5533 174.631C26.0078 174.381 26.3572 174.051 26.6016 173.642C26.8516 173.233 26.9766 172.787 26.9766 172.304V170.761C26.88 170.841 26.7152 170.915 26.4822 170.983C26.255 171.051 25.9993 171.111 25.7152 171.162C25.4311 171.213 25.1499 171.259 24.8714 171.298C24.593 171.338 24.3516 171.372 24.147 171.401C23.6868 171.463 23.2749 171.565 22.9112 171.707C22.5476 171.849 22.2607 172.048 22.0504 172.304C21.8402 172.554 21.7351 172.878 21.7351 173.276C21.7351 173.844 21.9425 174.273 22.3572 174.562C22.772 174.852 23.3004 174.997 23.9425 174.997ZM33.1555 177V163.909H36.1044V166.134H36.2578C36.5305 165.384 36.9822 164.798 37.6129 164.378C38.2436 163.952 38.9964 163.739 39.8714 163.739C40.7578 163.739 41.505 163.955 42.1129 164.386C42.7266 164.812 43.1584 165.395 43.4084 166.134H43.5447C43.8345 165.406 44.3232 164.827 45.0107 164.395C45.7038 163.957 46.5249 163.739 47.4737 163.739C48.6783 163.739 49.6612 164.119 50.4226 164.881C51.1839 165.642 51.5646 166.753 51.5646 168.213V177H48.4709V168.69C48.4709 167.878 48.255 167.284 47.8232 166.909C47.3913 166.528 46.8629 166.338 46.2379 166.338C45.4936 166.338 44.9112 166.571 44.4908 167.037C44.076 167.497 43.8686 168.097 43.8686 168.835V177H40.843V168.562C40.843 167.886 40.6385 167.347 40.2294 166.943C39.826 166.54 39.2976 166.338 38.6442 166.338C38.201 166.338 37.7976 166.452 37.4339 166.679C37.0703 166.901 36.7805 167.216 36.5646 167.625C36.3487 168.028 36.2408 168.5 36.2408 169.04V177H33.1555ZM60.4901 177.256C59.1776 177.256 58.044 176.983 57.0895 176.438C56.1406 175.886 55.4105 175.108 54.8991 174.102C54.3878 173.091 54.1321 171.901 54.1321 170.531C54.1321 169.185 54.3878 168.003 54.8991 166.986C55.4162 165.963 56.1378 165.168 57.0639 164.599C57.9901 164.026 59.0781 163.739 60.3281 163.739C61.1349 163.739 61.8963 163.869 62.6122 164.131C63.3338 164.386 63.9702 164.784 64.5213 165.324C65.0781 165.864 65.5156 166.551 65.8338 167.386C66.152 168.216 66.3111 169.205 66.3111 170.352V171.298H55.581V169.219H63.3537C63.348 168.628 63.2202 168.102 62.9702 167.642C62.7202 167.176 62.3707 166.81 61.9219 166.543C61.4787 166.276 60.9616 166.142 60.3707 166.142C59.7401 166.142 59.1861 166.295 58.7088 166.602C58.2315 166.903 57.8594 167.301 57.5923 167.795C57.331 168.284 57.1974 168.821 57.1918 169.406V171.222C57.1918 171.983 57.331 172.636 57.6094 173.182C57.8878 173.722 58.277 174.136 58.777 174.426C59.277 174.71 59.8622 174.852 60.5327 174.852C60.9815 174.852 61.3878 174.79 61.7514 174.665C62.1151 174.534 62.4304 174.344 62.6974 174.094C62.9645 173.844 63.1662 173.534 63.3026 173.165L66.1832 173.489C66.0014 174.25 65.6548 174.915 65.1435 175.483C64.6378 176.045 63.9901 176.483 63.2003 176.795C62.4105 177.102 61.5071 177.256 60.4901 177.256ZM70.8217 177.188C70.3047 177.188 69.8615 177.006 69.4922 176.642C69.1229 176.278 68.9411 175.835 68.9467 175.312C68.9411 174.801 69.1229 174.364 69.4922 174C69.8615 173.636 70.3047 173.455 70.8217 173.455C71.3217 173.455 71.7564 173.636 72.1257 174C72.5007 174.364 72.6911 174.801 72.6967 175.312C72.6911 175.659 72.6001 175.974 72.424 176.259C72.2536 176.543 72.0263 176.77 71.7422 176.94C71.4638 177.105 71.157 177.188 70.8217 177.188ZM70.8217 167.847C70.3047 167.847 69.8615 167.665 69.4922 167.301C69.1229 166.932 68.9411 166.489 68.9467 165.972C68.9411 165.46 69.1229 165.023 69.4922 164.659C69.8615 164.29 70.3047 164.105 70.8217 164.105C71.3217 164.105 71.7564 164.29 72.1257 164.659C72.5007 165.023 72.6911 165.46 72.6967 165.972C72.6911 166.312 72.6001 166.625 72.424 166.909C72.2536 167.193 72.0263 167.42 71.7422 167.591C71.4638 167.761 71.157 167.847 70.8217 167.847Z" fill="black"/>
<path d="M97 14C97 10.6863 99.6863 8 103 8H120C123.314 8 126 10.6863 126 14V29.766C126 33.0797 123.314 35.766 120 35.766H103C99.6863 35.766 97 33.0797 97 29.766V14Z" fill="#AEAEAE"/>
<path d="M111.5 13L117.995 29.5H105.005L111.5 13Z" fill="#CCCC66"/>
<path d="M136 14C136 10.6863 138.686 8 142 8H159C162.314 8 165 10.6863 165 14V29.766C165 33.0797 162.314 35.766 159 35.766H142C138.686 35.766 136 33.0797 136 29.766V14Z" fill="#AEAEAE"/>
<path d="M150.5 13L156.995 29.5H144.005L150.5 13Z" fill="#D1944E"/>
<path d="M176 14C176 11.2386 178.239 9 181 9H198C200.761 9 203 11.2386 203 14V29.766C203 32.5274 200.761 34.766 198 34.766H181C178.239 34.766 176 32.5274 176 29.766V14Z" fill="#AEAEAE" stroke="black" stroke-width="2"/>
<path d="M189.5 13L195.995 29.5H183.005L189.5 13Z" fill="#7E5FEE"/>
<path d="M214 14C214 10.6863 216.686 8 220 8H237C240.314 8 243 10.6863 243 14V29.766C243 33.0797 240.314 35.766 237 35.766H220C216.686 35.766 214 33.0797 214 29.766V14Z" fill="#AEAEAE"/>
<path d="M228.5 13L234.995 29.5H222.005L228.5 13Z" fill="white"/>
<path d="M98 75C98 72.2386 100.239 70 103 70H120C122.761 70 125 72.2386 125 75V90.766C125 93.5274 122.761 95.766 120 95.766H103C100.239 95.766 98 93.5274 98 90.766V75Z" fill="#AEAEAE" stroke="black" stroke-width="2"/>
<path d="M136 75C136 71.6863 138.686 69 142 69H159C162.314 69 165 71.6863 165 75V90.766C165 94.0797 162.314 96.766 159 96.766H142C138.686 96.766 136 94.0797 136 90.766V75Z" fill="#AEAEAE"/>
<path d="M175 75C175 71.6863 177.686 69 181 69H198C201.314 69 204 71.6863 204 75V90.766C204 94.0797 201.314 96.766 198 96.766H181C177.686 96.766 175 94.0797 175 90.766V75Z" fill="#AEAEAE"/>
<path d="M214 75C214 71.6863 216.686 69 220 69H237C240.314 69 243 71.6863 243 75V90.766C243 94.0797 240.314 96.766 237 96.766H220C216.686 96.766 214 94.0797 214 90.766V75Z" fill="#AEAEAE"/>
<circle cx="112" cy="83" r="8" fill="#CCCC66"/>
<circle cx="151" cy="83" r="8" fill="#D1944E"/>
<circle cx="190" cy="83" r="8" fill="#7E5FEE"/>
<circle cx="229" cy="83" r="8" fill="white"/>
<circle cx="380" cy="71" r="43" fill="#CCCC66"/>
<path d="M351.705 19.9774L369.967 40.5836L353.157 47.4727L351.705 19.9774Z" fill="#7E5FEE"/>
<path d="M413.774 22.3776L408.246 49.3506L392.649 40.0363L413.774 22.3776Z" fill="#7E5FEE"/>
<circle cx="366" cy="65" r="9" fill="#D9D9D9"/>
<circle cx="366" cy="65" r="5" fill="black"/>
<circle cx="394" cy="65" r="9" fill="#D9D9D9"/>
<circle cx="394" cy="65" r="5" fill="black"/>
<ellipse cx="371" cy="94" rx="8" ry="3" fill="#D9D9D9"/>
<ellipse cx="387" cy="94" rx="8" ry="3" fill="#D9D9D9"/>
<path d="M381 95.5C381 95.8283 380.935 96.1534 380.81 96.4567C380.684 96.76 380.5 97.0356 380.268 97.2678C380.036 97.4999 379.76 97.6841 379.457 97.8097C379.153 97.9353 378.828 98 378.5 98C378.172 98 377.847 97.9353 377.543 97.8097C377.24 97.6841 376.964 97.4999 376.732 97.2678C376.5 97.0356 376.316 96.76 376.19 96.4567C376.065 96.1534 376 95.8283 376 95.5H377.091C377.091 95.685 377.128 95.8681 377.199 96.039C377.269 96.2099 377.373 96.3652 377.504 96.496C377.635 96.6268 377.79 96.7305 377.961 96.8013C378.132 96.8721 378.315 96.9086 378.5 96.9086C378.685 96.9086 378.868 96.8721 379.039 96.8013C379.21 96.7305 379.365 96.6268 379.496 96.496C379.627 96.3652 379.731 96.2099 379.801 96.039C379.872 95.8681 379.909 95.685 379.909 95.5H381Z" fill="#D9D9D9"/>
<line x1="151.5" y1="155" x2="151.5" y2="176" stroke="#AEAEAE"/>
</svg>
