<svg width="250" height="260" viewBox="0 0 250 260" fill="none" xmlns="http://www.w3.org/2000/svg">
<circle cx="127.355" cy="156.804" r="102.5" fill="black"/>
<path d="M53.2735 14.2346L116.805 83.7611L52.9863 108.416L53.2735 14.2346Z" fill="#CCCC66"/>
<path d="M214.203 20.8447L205.886 114.659L144.586 84.2773L214.203 20.8447Z" fill="#CCCC66"/>
<ellipse cx="105.855" cy="201.304" rx="21" ry="10" fill="#CCCC66"/>
<ellipse cx="147.855" cy="201.304" rx="21" ry="10" fill="#CCCC66"/>
<circle cx="98.8551" cy="136.304" r="24" fill="#D9D9D9"/>
<circle cx="98.3551" cy="135.804" r="13.5" fill="#010101"/>
<circle cx="155.855" cy="136.304" r="24" fill="#D9D9D9"/>
<circle cx="155.355" cy="135.804" r="13.5" fill="#010101"/>
<path d="M134.697 206.741C134.838 207.822 134.741 208.92 134.414 209.96C134.087 210.999 133.537 211.955 132.803 212.761C132.069 213.566 131.168 214.202 130.163 214.624C129.158 215.046 128.074 215.244 126.985 215.204C125.895 215.164 124.828 214.887 123.857 214.392C122.886 213.898 122.034 213.198 121.361 212.341C120.688 211.483 120.21 210.49 119.96 209.429C119.71 208.368 119.694 207.266 119.913 206.199L122.598 206.75C122.459 207.428 122.469 208.127 122.628 208.8C122.786 209.473 123.09 210.104 123.517 210.648C123.944 211.192 124.484 211.636 125.101 211.949C125.717 212.263 126.394 212.439 127.085 212.464C127.776 212.49 128.464 212.364 129.102 212.096C129.74 211.829 130.311 211.425 130.777 210.914C131.243 210.403 131.592 209.797 131.799 209.137C132.007 208.477 132.068 207.781 131.979 207.095L134.697 206.741Z" fill="#CCCC66"/>
<line x1="100.911" y1="199.492" x2="0.911425" y2="181.492" stroke="#FFF2F2"/>
<line x1="102.03" y1="202.499" x2="1.02965" y2="208.499" stroke="#FFF2F2"/>
<line x1="105.16" y1="207.474" x2="25.1599" y2="234.474" stroke="#FFF2F2"/>
<line x1="159.89" y1="199.512" x2="243.89" y2="180.512" stroke="#FFF2F2"/>
<line x1="159.067" y1="203.504" x2="248.067" y2="215.504" stroke="#FFF2F2"/>
<line x1="155.187" y1="205.536" x2="242.187" y2="240.536" stroke="#FFF2F2"/>
</svg>
