<svg width="234" height="260" viewBox="0 0 234 260" fill="none" xmlns="http://www.w3.org/2000/svg">
<circle cx="110.928" cy="156.804" r="102.5" fill="#DDA16D"/>
<path d="M36.846 14.2346L100.378 83.7611L36.5588 108.416L36.846 14.2346Z" fill="#D9D9D9"/>
<path d="M197.775 20.8447L189.458 114.659L128.158 84.2773L197.775 20.8447Z" fill="#D9D9D9"/>
<ellipse cx="89.4276" cy="201.304" rx="21" ry="10" fill="#D9D9D9"/>
<ellipse cx="131.428" cy="201.304" rx="21" ry="10" fill="#D9D9D9"/>
<circle cx="82.4276" cy="136.304" r="24" fill="#D9D9D9"/>
<circle cx="81.9276" cy="135.804" r="13.5" fill="#010101"/>
<circle cx="139.428" cy="136.304" r="24" fill="#D9D9D9"/>
<circle cx="138.928" cy="135.804" r="13.5" fill="#010101"/>
<path d="M118.27 206.741C118.41 207.822 118.313 208.92 117.986 209.96C117.659 210.999 117.109 211.955 116.375 212.761C115.641 213.566 114.74 214.202 113.736 214.624C112.731 215.046 111.646 215.244 110.557 215.204C109.468 215.164 108.401 214.887 107.429 214.392C106.458 213.898 105.607 213.198 104.933 212.341C104.26 211.483 103.782 210.49 103.532 209.429C103.282 208.368 103.266 207.266 103.486 206.199L106.171 206.75C106.032 207.428 106.042 208.127 106.2 208.8C106.359 209.473 106.662 210.104 107.089 210.648C107.516 211.192 108.057 211.636 108.673 211.949C109.289 212.263 109.967 212.439 110.658 212.464C111.349 212.49 112.037 212.364 112.674 212.096C113.312 211.829 113.884 211.425 114.349 210.914C114.815 210.403 115.164 209.797 115.372 209.137C115.579 208.477 115.64 207.781 115.551 207.095L118.27 206.741Z" fill="#D9D9D9"/>
</svg>
