<svg width="41" height="41" viewBox="0 0 41 41" fill="none" xmlns="http://www.w3.org/2000/svg">
<path fill-rule="evenodd" clip-rule="evenodd" d="M21.9378 12.5478L25.9062 8.57939C27.2395 7.24606 27.9062 6.57939 28.7346 6.57939C29.5631 6.57939 30.2297 7.24606 31.5631 8.57939L32.5251 9.5414L32.5251 9.54141C33.8584 10.8747 34.5251 11.5414 34.5251 12.3698C34.5251 13.1983 33.8584 13.8649 32.5251 15.1983L28.5927 19.1306C25.8439 17.5323 23.556 15.2614 21.9378 12.5478ZM20.4835 14.0021L8.07971 26.4059L8.07969 26.4059C7.65465 26.831 7.44212 27.0435 7.30239 27.3046C7.16265 27.5657 7.10371 27.8604 6.98582 28.4499L5.71571 34.8004C5.64919 35.133 5.61592 35.2993 5.71053 35.3939C5.80514 35.4885 5.97145 35.4553 6.30406 35.3888L12.6546 34.1186L12.6546 34.1186C13.2441 34.0008 13.5388 33.9418 13.7999 33.8021C14.061 33.6623 14.2735 33.4498 14.6986 33.0248L27.1347 20.5886C24.4367 18.9262 22.1631 16.6685 20.4835 14.0021Z" fill="#222222"/>
</svg>
